<svg width="631" height="479" viewBox="0 0 631 479" fill="none" xmlns="http://www.w3.org/2000/svg">
<g clip-path="url(#clip0)" filter="url(#filter0_d)">
<path d="M600.685 77.6495L126.619 10.5479C115.683 8.99986 105.562 16.6108 104.014 27.5475L57.5199 356.021C55.9719 366.958 63.5829 377.079 74.5195 378.627L548.585 445.728C559.522 447.276 569.642 439.665 571.19 428.729L617.684 100.255C619.232 89.3184 611.621 79.1975 600.685 77.6495Z" fill="#F4F4FA"/>
<path d="M585.158 84.6091L534.907 77.4964C527.815 76.4925 521.411 80.301 520.604 86.0029C519.797 91.7048 524.892 97.1409 531.985 98.1448L582.235 105.257C589.327 106.261 595.731 102.453 596.538 96.751C597.345 91.0491 592.25 85.613 585.158 84.6091Z" fill="#632FF5"/>
<path d="M563.213 171.245L141.11 111.499C136.176 110.8 131.721 113.45 131.16 117.416L97.6128 354.423C97.0514 358.39 100.596 362.171 105.53 362.87L527.633 422.616C532.566 423.315 537.021 420.665 537.583 416.699L571.13 179.692C571.691 175.725 568.147 171.944 563.213 171.245Z" fill="white"/>
<path d="M547.926 214.869L143.69 157.651C138.756 156.953 134.301 159.602 133.74 163.569L132.088 175.239C131.526 179.206 135.071 182.987 140.005 183.686L544.241 240.903C549.175 241.602 553.629 238.952 554.191 234.986L555.843 223.315C556.404 219.349 552.86 215.567 547.926 214.869Z" fill="#EAEAF0"/>
<path d="M540.81 265.143L136.574 207.925C131.64 207.227 127.185 209.876 126.624 213.843L124.972 225.513C124.41 229.48 127.955 233.262 132.889 233.96L537.125 291.178C542.059 291.876 546.514 289.227 547.075 285.26L548.727 273.589C549.288 269.623 545.744 265.841 540.81 265.143Z" fill="#EAEAF0"/>
<path d="M533.694 315.417L129.458 258.199C124.524 257.501 120.069 260.15 119.508 264.117L117.856 275.788C117.294 279.754 120.839 283.536 125.772 284.234L530.009 341.452C534.943 342.15 539.397 339.501 539.959 335.534L541.611 323.863C542.172 319.897 538.628 316.115 533.694 315.417Z" fill="#EAEAF0"/>
<path d="M526.578 365.691L122.342 308.473C117.408 307.775 112.953 310.425 112.392 314.391L110.74 326.062C110.178 330.028 113.723 333.81 118.656 334.508L522.893 391.726C527.826 392.424 532.281 389.775 532.843 385.808L534.495 374.138C535.056 370.171 531.512 366.389 526.578 365.691Z" fill="#EAEAF0"/>
<path d="M256.416 210.236L146.982 194.747C144.823 194.441 142.874 195.6 142.629 197.335C142.383 199.071 143.934 200.725 146.092 201.031L255.526 216.521C257.685 216.826 259.634 215.667 259.88 213.932C260.125 212.196 258.574 210.542 256.416 210.236Z" fill="#838383"/>
<path d="M386.077 227.674L276.643 212.184C274.485 211.878 272.536 213.037 272.29 214.773C272.045 216.508 273.595 218.162 275.754 218.468L385.188 233.958C387.346 234.263 389.295 233.104 389.541 231.369C389.787 229.634 388.236 227.979 386.077 227.674Z" fill="#838383"/>
<path d="M237.271 256.976L140.12 243.225C137.961 242.92 136.012 244.079 135.767 245.814C135.521 247.549 137.072 249.204 139.23 249.509L236.381 263.261C238.54 263.566 240.489 262.407 240.734 260.672C240.98 258.936 239.429 257.282 237.271 256.976Z" fill="#838383"/>
<path d="M366.932 274.414L269.781 260.662C267.623 260.357 265.674 261.516 265.428 263.251C265.183 264.987 266.733 266.641 268.892 266.947L366.043 280.698C368.201 281.003 370.15 279.844 370.396 278.109C370.641 276.374 369.091 274.719 366.932 274.414Z" fill="#838383"/>
<path d="M223.536 281.589L136.435 269.26C134.276 268.955 132.327 270.114 132.082 271.849C131.836 273.584 133.387 275.239 135.545 275.544L222.646 287.873C224.805 288.179 226.753 287.019 226.999 285.284C227.245 283.549 225.694 281.894 223.536 281.589Z" fill="#838383"/>
<path d="M353.197 299.026L266.096 286.697C263.938 286.392 261.989 287.551 261.743 289.286C261.497 291.022 263.048 292.676 265.207 292.981L352.307 305.31C354.466 305.616 356.415 304.457 356.66 302.721C356.906 300.986 355.355 299.332 353.197 299.026Z" fill="#838383"/>
<path d="M232.388 307.567L133.004 293.499C130.845 293.194 128.896 294.353 128.651 296.088C128.405 297.824 129.956 299.478 132.114 299.784L231.498 313.851C233.657 314.157 235.606 312.997 235.852 311.262C236.097 309.527 234.546 307.872 232.388 307.567Z" fill="#838383"/>
<path d="M362.049 325.004L262.665 310.937C260.507 310.631 258.558 311.79 258.312 313.525C258.066 315.261 259.617 316.915 261.776 317.221L361.16 331.288C363.318 331.594 365.267 330.435 365.513 328.699C365.758 326.964 364.208 325.309 362.049 325.004Z" fill="#838383"/>
<path d="M169.519 325.224L129.319 319.534C127.16 319.229 125.211 320.388 124.966 322.123C124.72 323.859 126.271 325.513 128.429 325.819L168.629 331.509C170.788 331.814 172.737 330.655 172.983 328.92C173.228 327.184 171.678 325.53 169.519 325.224Z" fill="#838383"/>
<path d="M299.18 342.662L258.98 336.971C256.822 336.666 254.873 337.825 254.627 339.56C254.382 341.296 255.932 342.95 258.091 343.256L298.291 348.946C300.449 349.251 302.398 348.092 302.644 346.357C302.89 344.622 301.339 342.967 299.18 342.662Z" fill="#838383"/>
<path d="M186.188 352.309L125.888 343.774C123.729 343.468 121.78 344.627 121.535 346.362C121.289 348.098 122.84 349.752 124.998 350.058L185.299 358.593C187.457 358.899 189.406 357.739 189.652 356.004C189.897 354.269 188.347 352.614 186.188 352.309Z" fill="#838383"/>
<path d="M315.85 369.746L255.549 361.211C253.391 360.905 251.442 362.064 251.196 363.8C250.95 365.535 252.501 367.19 254.66 367.495L314.96 376.03C317.119 376.336 319.068 375.177 319.313 373.441C319.559 371.706 318.008 370.051 315.85 369.746Z" fill="#838383"/>
<path d="M227.302 230.84L143.551 218.986C141.392 218.68 139.443 219.839 139.198 221.575C138.952 223.31 140.503 224.965 142.661 225.27L226.412 237.125C228.571 237.43 230.519 236.271 230.765 234.536C231.011 232.8 229.46 231.146 227.302 230.84Z" fill="#838383"/>
<path d="M356.963 248.278L273.212 236.423C271.054 236.118 269.105 237.277 268.859 239.012C268.614 240.747 270.164 242.402 272.323 242.707L356.073 254.562C358.232 254.867 360.181 253.708 360.427 251.973C360.672 250.238 359.121 248.583 356.963 248.278Z" fill="#838383"/>
<path d="M237.64 181.938L150.54 169.609C148.381 169.304 146.432 170.463 146.187 172.198C145.941 173.934 147.492 175.588 149.65 175.894L236.751 188.222C238.909 188.528 240.858 187.369 241.104 185.633C241.35 183.898 239.799 182.244 237.64 181.938Z" fill="#838383"/>
<path d="M233.582 37.5926L150.948 25.8962C146.015 25.1978 141.56 27.8472 140.998 31.8137L140.871 32.7115C140.31 36.678 143.854 40.4596 148.788 41.158L231.422 52.8544C236.356 53.5527 240.811 50.9034 241.372 46.9368L241.499 46.0391C242.061 42.0726 238.516 38.2909 233.582 37.5926Z" fill="#838383"/>
<path d="M319.994 70.8857L148.026 46.5445C143.092 45.8461 138.637 48.4955 138.076 52.462L137.949 53.3598C137.387 57.3263 140.932 61.1079 145.865 61.8063L317.833 86.1475C322.767 86.8458 327.222 84.1965 327.783 80.2299L327.91 79.3322C328.472 75.3657 324.927 71.584 319.994 70.8857Z" fill="#838383"/>
<path d="M318.168 192.421L280.201 187.047C278.043 186.741 276.094 187.9 275.848 189.636C275.602 191.371 277.153 193.025 279.312 193.331L317.279 198.705C319.437 199.01 321.386 197.851 321.632 196.116C321.877 194.381 320.327 192.726 318.168 192.421Z" fill="#838383"/>
<path d="M485.669 216.13L427.602 207.91C425.444 207.605 423.495 208.764 423.249 210.499C423.003 212.235 424.554 213.889 426.713 214.195L484.78 222.414C486.938 222.719 488.887 221.56 489.133 219.825C489.379 218.09 487.828 216.435 485.669 216.13Z" fill="#838383"/>
<path d="M504.649 238.962L428.715 228.214C423.781 227.516 419.327 230.165 418.765 234.132L418.384 236.825C417.822 240.792 421.367 244.573 426.301 245.272L502.234 256.02C507.168 256.718 511.623 254.069 512.184 250.102L512.566 247.409C513.127 243.442 509.583 239.661 504.649 238.962Z" fill="#F52F7B"/>
<path d="M501.091 264.099L425.157 253.351C420.223 252.653 415.769 255.302 415.207 259.269L414.826 261.962C414.264 265.929 417.809 269.71 422.743 270.409L498.677 281.157C503.61 281.855 508.065 279.206 508.626 275.239L509.008 272.546C509.569 268.579 506.025 264.798 501.091 264.099Z" fill="#C78B3E"/>
<path d="M497.66 288.339L421.726 277.591C416.792 276.892 412.338 279.542 411.776 283.508L411.395 286.202C410.833 290.168 414.378 293.95 419.312 294.648L495.246 305.396C500.179 306.094 504.634 303.445 505.196 299.479L505.577 296.785C506.138 292.819 502.594 289.037 497.66 288.339Z" fill="#F52F7B"/>
<path d="M493.975 314.374L418.041 303.626C413.107 302.927 408.652 305.577 408.091 309.543L407.71 312.236C407.148 316.203 410.693 319.984 415.627 320.683L491.56 331.431C496.494 332.129 500.949 329.48 501.51 325.513L501.892 322.82C502.453 318.854 498.909 315.072 493.975 314.374Z" fill="#F52F7B"/>
<path d="M490.544 338.613L414.61 327.865C409.676 327.167 405.221 329.816 404.66 333.782L404.279 336.476C403.717 340.442 407.262 344.224 412.196 344.922L488.13 355.67C493.063 356.369 497.518 353.719 498.079 349.753L498.461 347.059C499.022 343.093 495.478 339.311 490.544 338.613Z" fill="#C78B3E"/>
<path d="M486.859 364.648L410.925 353.9C405.991 353.201 401.536 355.851 400.975 359.817L400.594 362.511C400.032 366.477 403.577 370.259 408.511 370.957L484.444 381.705C489.378 382.403 493.833 379.754 494.394 375.788L494.776 373.094C495.337 369.128 491.793 365.346 486.859 364.648Z" fill="#63B79F"/>
<path d="M483.174 390.683L407.24 379.935C402.306 379.236 397.851 381.886 397.29 385.852L396.909 388.545C396.347 392.512 399.892 396.294 404.825 396.992L480.759 407.74C485.693 408.438 490.148 405.789 490.709 401.822L491.09 399.129C491.652 395.163 488.107 391.381 483.174 390.683Z" fill="#63B79F"/>
<path d="M434.834 84.3936C441.926 85.3974 448.33 81.5889 449.137 75.8871C449.944 70.1852 444.849 64.7491 437.757 63.7452C430.664 62.7414 424.261 66.5498 423.454 72.2517C422.647 77.9536 427.742 83.3897 434.834 84.3936Z" fill="#838383"/>
<path d="M466.101 88.8192C473.193 89.8231 479.597 86.0146 480.404 80.3127C481.211 74.6109 476.116 69.1748 469.024 68.1709C461.932 67.167 455.528 70.9755 454.721 76.6774C453.914 82.3793 459.009 87.8153 466.101 88.8192Z" fill="#838383"/>
<path d="M497.368 93.2449C504.46 94.2488 510.864 90.4403 511.671 84.7384C512.478 79.0365 507.383 73.6004 500.291 72.5966C493.198 71.5927 486.795 75.4012 485.988 81.103C485.18 86.8049 490.276 92.241 497.368 93.2449Z" fill="#838383"/>
<path d="M206.89 133.63L156.639 126.517C148.93 125.426 141.97 129.566 141.092 135.763C140.215 141.961 145.753 147.87 153.462 148.961L203.713 156.074C211.422 157.165 218.382 153.025 219.26 146.828C220.137 140.63 214.599 134.721 206.89 133.63Z" fill="#632FF5"/>
<path d="M457.533 165.444L407.283 158.332C399.574 157.241 392.613 161.38 391.736 167.578C390.859 173.776 396.397 179.684 404.106 180.775L454.356 187.888C462.065 188.979 469.026 184.84 469.903 178.642C470.781 172.444 465.242 166.536 457.533 165.444Z" fill="#632FF5"/>
<path d="M545.75 177.931L495.5 170.818C487.791 169.727 480.83 173.867 479.953 180.065C479.076 186.262 484.614 192.171 492.323 193.262L542.574 200.375C550.283 201.466 557.243 197.326 558.12 191.129C558.998 184.931 553.459 179.022 545.75 177.931Z" fill="#632FF5"/>
<path d="M152.904 148.882C160.305 149.93 167.015 145.755 167.893 139.557C168.77 133.359 163.482 127.486 156.081 126.438C148.68 125.391 141.97 129.566 141.092 135.763C140.215 141.961 145.503 147.835 152.904 148.882Z" fill="#4329B7"/>
<path d="M403.548 180.696C410.948 181.744 417.659 177.569 418.536 171.371C419.413 165.174 414.125 159.3 406.724 158.253C399.324 157.205 392.613 161.38 391.736 167.578C390.859 173.776 396.147 179.649 403.548 180.696Z" fill="#4329B7"/>
<path d="M491.765 193.183C499.166 194.231 505.876 190.056 506.753 183.858C507.631 177.66 502.342 171.787 494.942 170.739C487.541 169.692 480.83 173.867 479.953 180.065C479.076 186.262 484.364 192.136 491.765 193.183Z" fill="#4329B7"/>
</g>
<defs>
<filter id="filter0_d" x="-10.0001" y="0" width="640.487" height="478.531" filterUnits="userSpaceOnUse" color-interpolation-filters="sRGB">
<feFlood flood-opacity="0" result="BackgroundImageFix"/>
<feColorMatrix in="SourceAlpha" type="matrix" values="0 0 0 0 0 0 0 0 0 0 0 0 0 0 0 0 0 0 127 0" result="hardAlpha"/>
<feOffset dy="20"/>
<feGaussianBlur stdDeviation="5"/>
<feColorMatrix type="matrix" values="0 0 0 0 0 0 0 0 0 0 0 0 0 0 0 0 0 0 0.5 0"/>
<feBlend mode="normal" in2="BackgroundImageFix" result="effect1_dropShadow"/>
<feBlend mode="normal" in="SourceGraphic" in2="effect1_dropShadow" result="shape"/>
</filter>
<clipPath id="clip0">
<rect width="574.053" height="371.748" fill="white" transform="translate(52.0996) rotate(8.05641)"/>
</clipPath>
</defs>
</svg>
