<svg width="581" height="466" viewBox="0 0 581 466" fill="none" xmlns="http://www.w3.org/2000/svg">
<g filter="url(#filter0_d)">
<path d="M553.365 67.3009L79.299 0.199896C68.363 -1.3481 58.242 6.2629 56.694 17.1999L10.1999 345.673C8.6519 356.61 16.2629 366.731 27.1995 368.279L501.265 435.38C512.202 436.928 522.322 429.317 523.87 418.381L570.364 89.9069C571.912 78.9699 564.301 68.8499 553.365 67.3009Z" fill="#F4F4FA"/>
<path d="M537.838 74.2608L487.587 67.1478C480.495 66.1448 474.091 69.9529 473.284 75.6549C472.477 81.3569 477.572 86.7929 484.665 87.7969L534.915 94.9089C542.007 95.9129 548.411 92.1049 549.218 86.4029C550.025 80.7009 544.93 75.2648 537.838 74.2608Z" fill="#632FF5"/>
<path d="M515.893 160.897L93.79 101.151C88.856 100.452 84.401 103.102 83.84 107.068L50.293 344.075C49.731 348.042 53.276 351.823 58.21 352.522L480.313 412.268C485.246 412.967 489.701 410.317 490.263 406.351L523.81 169.344C524.371 165.377 520.827 161.596 515.893 160.897Z" fill="white"/>
<path d="M500.606 204.521L96.3696 147.303C91.4356 146.605 86.9806 149.254 86.4196 153.221L84.7676 164.891C84.2056 168.858 87.7506 172.639 92.6846 173.338L496.921 230.555C501.855 231.254 506.309 228.604 506.871 224.638L508.523 212.967C509.084 209.001 505.54 205.219 500.606 204.521Z" fill="#EAEAF0"/>
<path d="M493.49 254.795L89.2543 197.577C84.3203 196.879 79.8653 199.528 79.3043 203.495L77.6523 215.165C77.0903 219.132 80.6353 222.914 85.5693 223.612L489.805 280.83C494.739 281.528 499.194 278.879 499.755 274.912L501.407 263.241C501.968 259.275 498.424 255.493 493.49 254.795Z" fill="#EAEAF0"/>
<path d="M486.374 305.069L82.1381 247.851C77.2041 247.153 72.7491 249.802 72.1881 253.769L70.5361 265.44C69.9741 269.406 73.5191 273.188 78.4521 273.886L482.689 331.104C487.623 331.802 492.077 329.153 492.639 325.186L494.291 313.515C494.852 309.549 491.308 305.767 486.374 305.069Z" fill="#EAEAF0"/>
<path d="M479.258 355.343L75.0219 298.125C70.0879 297.427 65.6329 300.077 65.0719 304.043L63.4199 315.714C62.8579 319.68 66.4029 323.462 71.3359 324.16L475.573 381.378C480.506 382.076 484.961 379.427 485.523 375.46L487.175 363.79C487.736 359.823 484.192 356.041 479.258 355.343Z" fill="#EAEAF0"/>
<path d="M209.096 199.888L99.6619 184.399C97.5029 184.093 95.5539 185.252 95.3089 186.987C95.0629 188.723 96.6139 190.377 98.7719 190.683L208.206 206.173C210.365 206.478 212.314 205.319 212.56 203.584C212.805 201.848 211.254 200.194 209.096 199.888Z" fill="#838383"/>
<path d="M338.757 217.326L229.323 201.836C227.165 201.53 225.216 202.689 224.97 204.425C224.725 206.16 226.275 207.814 228.434 208.12L337.868 223.61C340.026 223.915 341.975 222.756 342.221 221.021C342.467 219.286 340.916 217.631 338.757 217.326Z" fill="#838383"/>
<path d="M189.951 246.628L92.7995 232.877C90.6405 232.572 88.6916 233.731 88.4466 235.466C88.2006 237.201 89.7515 238.856 91.9095 239.161L189.061 252.913C191.22 253.218 193.169 252.059 193.414 250.324C193.66 248.588 192.109 246.934 189.951 246.628Z" fill="#838383"/>
<path d="M319.611 264.066L222.46 250.314C220.302 250.009 218.354 251.168 218.108 252.903C217.863 254.639 219.412 256.293 221.571 256.599L318.722 270.35C320.88 270.655 322.829 269.496 323.075 267.761C323.32 266.026 321.77 264.371 319.611 264.066Z" fill="#838383"/>
<path d="M176.216 271.241L89.115 258.912C86.956 258.607 85.007 259.766 84.762 261.501C84.516 263.236 86.067 264.891 88.225 265.196L175.326 277.525C177.485 277.831 179.433 276.671 179.679 274.936C179.925 273.201 178.374 271.546 176.216 271.241Z" fill="#838383"/>
<path d="M305.877 288.678L218.776 276.349C216.618 276.044 214.669 277.203 214.423 278.938C214.177 280.674 215.728 282.328 217.887 282.633L304.987 294.962C307.146 295.268 309.095 294.109 309.34 292.373C309.586 290.638 308.035 288.984 305.877 288.678Z" fill="#838383"/>
<path d="M185.068 297.219L85.6843 283.151C83.5253 282.846 81.5763 284.005 81.3313 285.74C81.0853 287.476 82.6363 289.13 84.7943 289.436L184.178 303.503C186.337 303.809 188.286 302.649 188.532 300.914C188.777 299.179 187.226 297.524 185.068 297.219Z" fill="#838383"/>
<path d="M314.729 314.656L215.345 300.589C213.187 300.283 211.238 301.442 210.992 303.177C210.746 304.913 212.297 306.567 214.456 306.873L313.84 320.94C315.998 321.246 317.947 320.087 318.193 318.351C318.438 316.616 316.888 314.961 314.729 314.656Z" fill="#838383"/>
<path d="M122.199 314.876L81.9988 309.186C79.8398 308.881 77.8908 310.04 77.6458 311.775C77.3998 313.511 78.9508 315.165 81.1088 315.471L121.309 321.161C123.468 321.466 125.417 320.307 125.663 318.572C125.908 316.836 124.358 315.182 122.199 314.876Z" fill="#838383"/>
<path d="M251.86 332.314L211.66 326.623C209.502 326.318 207.553 327.477 207.307 329.212C207.062 330.948 208.612 332.602 210.771 332.908L250.971 338.598C253.129 338.903 255.078 337.744 255.324 336.009C255.57 334.274 254.019 332.619 251.86 332.314Z" fill="#838383"/>
<path d="M138.868 341.961L78.5681 333.426C76.4091 333.12 74.4601 334.279 74.2151 336.014C73.9691 337.75 75.5201 339.404 77.6781 339.71L137.979 348.245C140.137 348.551 142.086 347.391 142.332 345.656C142.577 343.921 141.027 342.266 138.868 341.961Z" fill="#838383"/>
<path d="M268.53 359.398L208.229 350.863C206.071 350.557 204.122 351.716 203.876 353.452C203.63 355.187 205.181 356.842 207.34 357.147L267.64 365.682C269.799 365.988 271.748 364.829 271.993 363.093C272.239 361.358 270.688 359.703 268.53 359.398Z" fill="#838383"/>
<path d="M179.982 220.492L96.2312 208.638C94.0722 208.332 92.1232 209.491 91.8782 211.227C91.6322 212.962 93.1832 214.617 95.3412 214.922L179.092 226.777C181.251 227.082 183.199 225.923 183.445 224.188C183.691 222.452 182.14 220.798 179.982 220.492Z" fill="#838383"/>
<path d="M309.643 237.93L225.892 226.075C223.734 225.77 221.785 226.929 221.539 228.664C221.294 230.399 222.844 232.054 225.003 232.359L308.753 244.214C310.912 244.519 312.861 243.36 313.107 241.625C313.352 239.89 311.801 238.235 309.643 237.93Z" fill="#838383"/>
<path d="M190.32 171.59L103.22 159.261C101.061 158.956 99.1124 160.115 98.8674 161.85C98.6214 163.586 100.172 165.24 102.33 165.546L189.431 177.874C191.589 178.18 193.538 177.021 193.784 175.285C194.03 173.55 192.479 171.896 190.32 171.59Z" fill="#838383"/>
<path d="M186.262 27.2449L103.628 15.5479C98.6946 14.8499 94.2396 17.4989 93.6776 21.4659L93.5506 22.3629C92.9896 26.3299 96.5336 30.1119 101.468 30.8099L184.102 42.5059C189.036 43.2049 193.491 40.5549 194.052 36.5889L194.179 35.6909C194.741 31.7249 191.196 27.9429 186.262 27.2449Z" fill="#838383"/>
<path d="M272.674 60.5378L100.706 36.1958C95.7719 35.4978 91.3169 38.1478 90.7559 42.1138L90.6289 43.0118C90.0669 46.9778 93.6119 50.7598 98.5449 51.4578L270.513 75.7988C275.447 76.4978 279.902 73.8478 280.463 69.8818L280.59 68.9838C281.152 65.0178 277.607 61.2358 272.674 60.5378Z" fill="#838383"/>
<path d="M270.848 182.073L232.881 176.699C230.723 176.393 228.774 177.552 228.528 179.288C228.282 181.023 229.833 182.677 231.992 182.983L269.959 188.357C272.117 188.662 274.066 187.503 274.312 185.768C274.557 184.033 273.007 182.378 270.848 182.073Z" fill="#838383"/>
<path d="M438.349 205.782L380.282 197.562C378.124 197.257 376.175 198.416 375.929 200.151C375.683 201.887 377.234 203.541 379.393 203.847L437.46 212.066C439.618 212.371 441.567 211.212 441.813 209.477C442.059 207.742 440.508 206.087 438.349 205.782Z" fill="#838383"/>
<path d="M457.329 228.614L381.395 217.866C376.461 217.168 372.007 219.817 371.445 223.784L371.064 226.477C370.502 230.444 374.047 234.225 378.981 234.924L454.914 245.672C459.848 246.37 464.303 243.721 464.864 239.754L465.246 237.061C465.807 233.094 462.263 229.313 457.329 228.614Z" fill="#F52F7B"/>
<path d="M453.771 253.751L377.837 243.003C372.903 242.305 368.449 244.954 367.887 248.921L367.506 251.614C366.944 255.581 370.489 259.362 375.423 260.061L451.357 270.809C456.29 271.507 460.745 268.858 461.306 264.891L461.688 262.198C462.249 258.231 458.705 254.45 453.771 253.751Z" fill="#C78B3E"/>
<path d="M450.34 277.991L374.406 267.243C369.472 266.544 365.018 269.194 364.456 273.16L364.075 275.854C363.513 279.82 367.058 283.602 371.992 284.3L447.926 295.048C452.859 295.746 457.314 293.097 457.876 289.131L458.257 286.437C458.818 282.471 455.274 278.689 450.34 277.991Z" fill="#F52F7B"/>
<path d="M446.655 304.026L370.721 293.278C365.787 292.579 361.332 295.229 360.771 299.195L360.39 301.888C359.828 305.855 363.373 309.636 368.307 310.335L444.24 321.083C449.174 321.781 453.629 319.132 454.19 315.165L454.572 312.472C455.133 308.506 451.589 304.724 446.655 304.026Z" fill="#F52F7B"/>
<path d="M443.224 328.265L367.29 317.517C362.356 316.819 357.901 319.468 357.34 323.434L356.959 326.128C356.397 330.094 359.942 333.876 364.876 334.574L440.81 345.322C445.743 346.021 450.198 343.371 450.759 339.405L451.141 336.711C451.702 332.745 448.158 328.963 443.224 328.265Z" fill="#C78B3E"/>
<path d="M439.539 354.3L363.605 343.552C358.671 342.853 354.216 345.503 353.655 349.469L353.274 352.163C352.712 356.129 356.257 359.911 361.191 360.609L437.124 371.357C442.058 372.055 446.513 369.406 447.074 365.44L447.456 362.746C448.017 358.78 444.473 354.998 439.539 354.3Z" fill="#63B79F"/>
<path d="M435.854 380.335L359.92 369.587C354.986 368.888 350.531 371.538 349.97 375.504L349.589 378.197C349.027 382.164 352.572 385.946 357.505 386.644L433.439 397.392C438.373 398.09 442.828 395.441 443.389 391.474L443.77 388.781C444.332 384.815 440.787 381.033 435.854 380.335Z" fill="#63B79F"/>
<path d="M387.514 74.0459C394.606 75.0489 401.01 71.2409 401.817 65.5389C402.624 59.8369 397.529 54.4009 390.437 53.3969C383.344 52.3929 376.941 56.2019 376.134 61.9039C375.327 67.6059 380.422 73.0419 387.514 74.0459Z" fill="#838383"/>
<path d="M418.781 78.4709C425.873 79.4749 432.277 75.6669 433.084 69.9649C433.891 64.2629 428.796 58.8269 421.704 57.8229C414.612 56.8189 408.208 60.6269 407.401 66.3289C406.594 72.0309 411.689 77.4669 418.781 78.4709Z" fill="#838383"/>
<path d="M450.048 82.897C457.14 83.901 463.544 80.092 464.351 74.39C465.158 68.689 460.063 63.252 452.971 62.249C445.878 61.245 439.475 65.053 438.668 70.755C437.86 76.457 442.956 81.893 450.048 82.897Z" fill="#838383"/>
<path d="M159.57 123.282L109.319 116.169C101.61 115.078 94.65 119.218 93.772 125.415C92.895 131.613 98.433 137.522 106.142 138.613L156.393 145.726C164.102 146.817 171.062 142.677 171.94 136.48C172.817 130.282 167.279 124.373 159.57 123.282Z" fill="#632FF5"/>
<path d="M410.213 155.096L359.963 147.984C352.254 146.893 345.293 151.032 344.416 157.23C343.539 163.428 349.077 169.336 356.786 170.427L407.036 177.54C414.745 178.631 421.706 174.492 422.583 168.294C423.461 162.096 417.922 156.188 410.213 155.096Z" fill="#632FF5"/>
<path d="M498.43 167.583L448.18 160.47C440.471 159.379 433.51 163.519 432.633 169.717C431.756 175.914 437.294 181.823 445.003 182.914L495.254 190.027C502.963 191.118 509.923 186.978 510.8 180.781C511.678 174.583 506.139 168.674 498.43 167.583Z" fill="#632FF5"/>
<path d="M105.584 138.534C112.985 139.582 119.695 135.407 120.573 129.209C121.45 123.011 116.162 117.138 108.761 116.09C101.36 115.043 94.6498 119.218 93.7718 125.415C92.8948 131.613 98.1828 137.487 105.584 138.534Z" fill="#4329B7"/>
<path d="M356.228 170.348C363.628 171.396 370.339 167.221 371.216 161.023C372.093 154.826 366.805 148.952 359.404 147.905C352.004 146.857 345.293 151.032 344.416 157.23C343.539 163.428 348.827 169.301 356.228 170.348Z" fill="#4329B7"/>
<path d="M444.445 182.835C451.846 183.883 458.556 179.708 459.433 173.51C460.311 167.312 455.022 161.439 447.622 160.391C440.221 159.344 433.51 163.519 432.633 169.717C431.756 175.914 437.044 181.788 444.445 182.835Z" fill="#4329B7"/>
</g>
<defs>
<filter id="filter0_d" x="0" y="0" width="580.564" height="465.58" filterUnits="userSpaceOnUse" color-interpolation-filters="sRGB">
<feFlood flood-opacity="0" result="BackgroundImageFix"/>
<feColorMatrix in="SourceAlpha" type="matrix" values="0 0 0 0 0 0 0 0 0 0 0 0 0 0 0 0 0 0 127 0" result="hardAlpha"/>
<feOffset dy="20"/>
<feGaussianBlur stdDeviation="5"/>
<feColorMatrix type="matrix" values="0 0 0 0 0 0 0 0 0 0 0 0 0 0 0 0 0 0 0.5 0"/>
<feBlend mode="normal" in2="BackgroundImageFix" result="effect1_dropShadow"/>
<feBlend mode="normal" in="SourceGraphic" in2="effect1_dropShadow" result="shape"/>
</filter>
</defs>
</svg>
