<svg width="1444" height="797" viewBox="0 0 1444 797" fill="none" xmlns="http://www.w3.org/2000/svg">
<path fill-rule="evenodd" clip-rule="evenodd" d="M0 686.646L30.0833 695.842C60.1667 705.038 120.333 723.431 180.5 709.637C240.667 695.842 300.833 649.862 361 663.656C421.167 677.45 481.333 751.019 541.5 755.617C601.667 760.215 661.833 695.842 722 677.45C782.167 659.058 842.333 686.646 902.5 686.646C962.667 686.646 1022.83 659.058 1083 640.665C1143.17 622.273 1203.33 613.077 1263.5 640.665C1323.67 668.254 1383.83 732.627 1413.92 764.813L1444 797V576.292H1413.92C1383.83 576.292 1323.67 576.292 1263.5 576.292C1203.33 576.292 1143.17 576.292 1083 576.292C1022.83 576.292 962.667 576.292 902.5 576.292C842.333 576.292 782.167 576.292 722 576.292C661.833 576.292 601.667 576.292 541.5 576.292C481.333 576.292 421.167 576.292 361 576.292C300.833 576.292 240.667 576.292 180.5 576.292C120.333 576.292 60.1667 576.292 30.0833 576.292H0V686.646Z" fill="url(#paint0_linear)"/>
<path d="M0 0H1444V576.292H0V0Z" fill="url(#paint1_linear)"/>
<path fill-rule="evenodd" clip-rule="evenodd" d="M0 553.302L30.0833 562.498C60.1667 571.694 120.333 590.086 180.5 576.292C240.667 562.498 300.833 516.517 361 530.311C421.167 544.106 481.333 617.675 541.5 622.273C601.667 626.871 661.833 562.498 722 544.106C782.167 525.713 842.333 553.302 902.5 553.302C962.667 553.302 1022.83 525.713 1083 507.321C1143.17 488.929 1203.33 479.733 1263.5 507.321C1323.67 534.91 1383.83 599.283 1413.92 631.469L1444 663.656V442.948H1413.92C1383.83 442.948 1323.67 442.948 1263.5 442.948C1203.33 442.948 1143.17 442.948 1083 442.948C1022.83 442.948 962.667 442.948 902.5 442.948C842.333 442.948 782.167 442.948 722 442.948C661.833 442.948 601.667 442.948 541.5 442.948C481.333 442.948 421.167 442.948 361 442.948C300.833 442.948 240.667 442.948 180.5 442.948C120.333 442.948 60.1667 442.948 30.0833 442.948H0V553.302Z" fill="url(#paint2_linear)"/>
<defs>
<linearGradient id="paint0_linear" x1="0" y1="0" x2="1456.18" y2="774.085" gradientUnits="userSpaceOnUse">
<stop offset="0.0001" stop-color="#4316DB"/>
<stop offset="0.0002" stop-color="#3A0CA3"/>
<stop offset="0.998889" stop-color="#7209B7"/>
</linearGradient>
<linearGradient id="paint1_linear" x1="0" y1="0" x2="1456.18" y2="774.085" gradientUnits="userSpaceOnUse">
<stop offset="0.0001" stop-color="#4316DB"/>
<stop offset="0.0002" stop-color="#3A0CA3"/>
<stop offset="0.998889" stop-color="#7209B7"/>
</linearGradient>
<linearGradient id="paint2_linear" x1="0" y1="0" x2="1456.18" y2="774.085" gradientUnits="userSpaceOnUse">
<stop offset="0.0001" stop-color="#4316DB"/>
<stop offset="0.0002" stop-color="#3A0CA3"/>
<stop offset="0.998889" stop-color="#7209B7"/>
</linearGradient>
</defs>
</svg>
