<svg width="44" height="44" viewBox="0 0 44 44" fill="none" xmlns="http://www.w3.org/2000/svg">
<path d="M22 44C34.1503 44 44 34.1503 44 22C44 9.84974 34.1503 0 22 0C9.84974 0 0 9.84974 0 22C0 34.1503 9.84974 44 22 44Z" fill="white"/>
<path d="M32.9064 5.95118L30.0839 5.10652C27.4256 4.31217 24.7667 3.51958 22.1073 2.72877C22.0255 2.70632 21.9374 2.70632 21.8557 2.72877C18.2806 3.79011 14.7061 4.85343 11.1321 5.91874C11.0781 5.92624 11.0298 5.95123 10.9975 5.98835C10.9652 6.02547 10.9514 6.07177 10.9591 6.11733C10.967 6.89447 10.967 7.67161 10.9591 8.44875C10.9524 8.48472 10.9623 8.52149 10.9869 8.55145C11.0115 8.5814 11.0489 8.60223 11.0912 8.60961C14.6773 9.67492 18.2626 10.7409 21.847 11.8075C21.9252 11.829 22.0094 11.829 22.0876 11.8075C25.6448 10.7484 29.2016 9.68772 32.7578 8.62549C32.8076 8.61835 32.852 8.59495 32.8815 8.56037C32.9109 8.52579 32.923 8.48282 32.915 8.44081C32.904 7.61204 32.9064 6.78724 32.9064 5.95118ZM15.225 7.26649C15.3036 7.24068 15.339 7.22611 15.3822 7.2142C17.5311 6.57298 19.6801 5.93309 21.8289 5.29452C21.8941 5.27676 21.9643 5.27676 22.0294 5.29452C24.1857 5.93662 26.3404 6.58049 28.4935 7.22612C28.5304 7.23671 28.565 7.24994 28.6216 7.27046L28.4817 7.31813C26.3375 7.9589 24.1922 8.59879 22.0459 9.2378C21.9714 9.25618 21.8919 9.25433 21.8187 9.23251C20.0891 8.72015 18.3619 8.20559 16.637 7.68882L15.225 7.26649Z" fill="#3C0CA4"/>
<path d="M32.9359 10.6113C32.7904 10.6537 32.6576 10.6908 32.5255 10.7311L22.1061 13.8423C22.0242 13.8664 21.9353 13.868 21.8522 13.847C18.2839 12.7878 14.7167 11.7247 11.1506 10.6576C11.1026 10.6431 11.0523 10.6325 10.9934 10.6179C10.9934 10.6524 10.9863 10.6788 10.9863 10.7053C10.9863 11.4944 10.9863 12.2834 10.9863 13.0731C10.9799 13.1074 10.9897 13.1424 11.0137 13.1707C11.0377 13.1989 11.0738 13.2181 11.1144 13.2241C14.7005 14.2898 18.2866 15.3567 21.8726 16.4246C21.9461 16.4459 22.0256 16.447 22.0998 16.4279C25.6681 15.3653 29.2353 14.3013 32.8015 13.236C32.8442 13.2301 32.8826 13.2105 32.9084 13.1812C32.9342 13.1519 32.9455 13.1153 32.9398 13.0791C32.9343 12.294 32.9398 11.5089 32.9398 10.7232L32.9359 10.6113Z" fill="#3C0CA4"/>
<path d="M32.936 15.2378C32.7906 15.2795 32.6577 15.3172 32.5256 15.3576L22.1063 18.4688C22.0244 18.493 21.9354 18.4946 21.8523 18.4734C18.2841 17.4143 14.7169 16.3512 11.1507 15.2841C11.1028 15.2696 11.0524 15.259 10.9935 15.2444C10.9935 15.2788 10.9864 15.3053 10.9864 15.3318C10.9864 16.1208 10.9864 16.9099 10.9864 17.6996C10.9798 17.734 10.9895 17.7692 11.0135 17.7976C11.0375 17.8259 11.0738 17.8452 11.1145 17.8512C14.7006 18.9169 18.2867 19.9836 21.8728 21.0511C21.9462 21.0723 22.0257 21.0735 22.1 21.0544C25.6682 19.9918 29.2354 18.9278 32.8016 17.8625C32.9007 17.8327 32.9408 17.7963 32.94 17.7056C32.9345 16.9205 32.94 16.1354 32.94 15.3497L32.936 15.2378Z" fill="#3C0CA4"/>
</svg>
