<svg width="24" height="24" viewBox="0 0 24 24" fill="none" xmlns="http://www.w3.org/2000/svg">
<path fill-rule="evenodd" clip-rule="evenodd" d="M22.5 21H5.5C4.67 21 4 20.33 4 19.5V12H24V19.5C24 20.33 23.33 21 22.5 21Z" fill="#632FF5"/>
<path fill-rule="evenodd" clip-rule="evenodd" d="M20.5 19H3.5C2.67 19 2 18.33 2 17.5V10H22V17.5C22 18.33 21.33 19 20.5 19Z" stroke="#E1E1E1" stroke-miterlimit="10" stroke-linecap="round" stroke-linejoin="round"/>
<path fill-rule="evenodd" clip-rule="evenodd" d="M24 12H4V8.5C4 7.67 4.67 7 5.5 7H22.5C23.33 7 24 7.67 24 8.5V12Z" fill="#632FF5"/>
<path fill-rule="evenodd" clip-rule="evenodd" d="M22 10H2V6.5C2 5.67 2.67 5 3.5 5H20.5C21.33 5 22 5.67 22 6.5V10Z" stroke="#E1E1E1" stroke-miterlimit="10" stroke-linecap="round" stroke-linejoin="round"/>
<path d="M22 9H2V10H22V9Z" stroke="#E1E1E1" stroke-miterlimit="10" stroke-linecap="round"/>
</svg>
