<svg width="24" height="24" viewBox="0 0 24 24" fill="none" xmlns="http://www.w3.org/2000/svg">
<path d="M8.37995 15H19.6199L22.5299 19.43C23.8099 21.43 22.3099 24 19.8699 24H8.12995C5.68995 24 4.18995 21.43 5.46995 19.43L8.37995 15Z" fill="#9275EF"/>
<path d="M6.37995 13H17.6199L20.5299 17.43C21.8099 19.43 20.3099 22 17.8699 22H6.12995C3.68995 22 2.18995 19.43 3.46995 17.43L6.37995 13Z" stroke="white" stroke-width="2" stroke-linecap="round" stroke-linejoin="round"/>
<path d="M8.37988 15H19.6199L17.1599 11.25C17.0499 11.09 16.9999 10.9 16.9999 10.7V7.16C16.9999 7.05 17.0199 6.95 17.0499 6.84L17.9999 4H9.99988L10.9499 6.85C10.9799 6.95 10.9999 7.05 10.9999 7.16V10.7C10.9999 10.9 10.9399 11.09 10.8299 11.25L8.37988 15Z" fill="#9275EF"/>
<path d="M6.37988 13H17.6199L15.1599 9.25C15.0499 9.09 14.9999 8.9 14.9999 8.7V5.16C14.9999 5.05 15.0199 4.95 15.0499 4.84L15.9999 2H7.99988L8.94988 4.85C8.97988 4.95 8.99988 5.05 8.99988 5.16V8.7C8.99988 8.9 8.93988 9.09 8.82988 9.25L6.37988 13Z" stroke="white" stroke-width="2" stroke-linecap="round" stroke-linejoin="round"/>
</svg>
