<svg width="24" height="24" viewBox="0 0 24 24" fill="none" xmlns="http://www.w3.org/2000/svg">
<path d="M14 5V12H17V15L20 12H24V5H14Z" fill="#632FF5"/>
<path d="M12 3V10H15V13L18 10H22V3H12Z" stroke="#E1E1E1" stroke-linecap="round" stroke-linejoin="round"/>
<path d="M4.99069 9.91051L6.78963 8L10.0868 11.9288C10.3628 12.2576 10.4562 12.6897 10.3377 13.0897L9.91559 14.515L12.3427 17.407L13.588 17.0816C13.9967 16.9748 14.4367 17.1119 14.7028 17.429L18 21.3578L15.6086 22.5624C13.9127 23.4167 11.7951 22.9894 10.5862 21.5491L4.87485 14.7436C3.66602 13.3033 3.71486 11.2655 4.99069 9.91051Z" fill="#632FF5"/>
<path d="M2.99069 7.91051L4.78963 6L8.08679 9.92875C8.36281 10.2576 8.4562 10.6897 8.33774 11.0897L7.91559 12.515L10.3427 15.407L11.588 15.0816C11.9967 14.9748 12.4367 15.1119 12.7028 15.429L16 19.3578L13.6086 20.5624C11.9127 21.4167 9.79506 20.9894 8.58623 19.5491L2.87485 12.7436C1.66602 11.3033 1.71486 9.26546 2.99069 7.91051Z" stroke="#E1E1E1"/>
</svg>
