<svg width="24" height="24" viewBox="0 0 24 24" fill="none" xmlns="http://www.w3.org/2000/svg">
<path d="M20 13.5C20 16.5376 17.3137 19 14 19C10.6863 19 8 16.5376 8 13.5C8 10.4624 10.6863 8 14 8C17.3137 8 20 10.4624 20 13.5Z" fill="#632FF5"/>
<path d="M18 11.5C18 14.5376 15.3137 17 12 17C8.68629 17 6 14.5376 6 11.5C6 8.46243 8.68629 6 12 6C15.3137 6 18 8.46243 18 11.5Z" stroke="#E1E1E1"/>
<path d="M12 1V4" stroke="#E1E1E1"/>
<path d="M15.5 4.5L17.5 2.5" stroke="#E1E1E1"/>
<path d="M6.5 2.5L8.5 4.5" stroke="#E1E1E1"/>
<path d="M11 23.5C11 23.2239 11.2239 23 11.5 23H16.5C16.7761 23 17 23.2239 17 23.5C17 23.7761 16.7761 24 16.5 24H11.5C11.2239 24 11 23.7761 11 23.5Z" fill="#632FF5"/>
<path d="M9 21.5C9 21.2239 9.22386 21 9.5 21H14.5C14.7761 21 15 21.2239 15 21.5C15 21.7761 14.7761 22 14.5 22H9.5C9.22386 22 9 21.7761 9 21.5Z" stroke="#E1E1E1" stroke-linecap="round"/>
<path d="M10.5 22C10.5 21.4477 10.9477 21 11.5 21H16.5C17.0523 21 17.5 21.4477 17.5 22C17.5 22.5523 17.0523 23 16.5 23H11.5C10.9477 23 10.5 22.5523 10.5 22Z" fill="#632FF5"/>
<path d="M8.5 20C8.5 19.4477 8.94772 19 9.5 19H14.5C15.0523 19 15.5 19.4477 15.5 20C15.5 20.5523 15.0523 21 14.5 21H9.5C8.94772 21 8.5 20.5523 8.5 20Z" stroke="#E1E1E1" stroke-linecap="round"/>
<path d="M17 19H11C10.4477 19 10 19.4477 10 20C10 20.5523 10.4477 21 11 21H17C17.5523 21 18 20.5523 18 20C18 19.4477 17.5523 19 17 19Z" fill="#632FF5"/>
<path d="M15 17H9C8.44772 17 8 17.4477 8 18C8 18.5523 8.44772 19 9 19H15C15.5523 19 16 18.5523 16 18C16 17.4477 15.5523 17 15 17Z" stroke="#E1E1E1" stroke-linecap="round"/>
</svg>
