<svg width="24" height="24" viewBox="0 0 24 24" fill="none" xmlns="http://www.w3.org/2000/svg">
<path d="M14 14C8.48 14 4 18.48 4 24C4.02 24 24 24 24 24C24 18.48 19.52 14 14 14Z" fill="#632FF5"/>
<path d="M12 12C6.48 12 2 16.48 2 22C2.02 22 22 22 22 22C22 16.48 17.52 12 12 12Z" stroke="#E1E1E1" stroke-miterlimit="10" stroke-linecap="round" stroke-linejoin="round"/>
<path d="M14 14C16.7614 14 19 11.7614 19 9C19 6.23858 16.7614 4 14 4C11.2386 4 9 6.23858 9 9C9 11.7614 11.2386 14 14 14Z" fill="#632FF5"/>
<path d="M12 12C14.7614 12 17 9.76142 17 7C17 4.23858 14.7614 2 12 2C9.23858 2 7 4.23858 7 7C7 9.76142 9.23858 12 12 12Z" stroke="#E1E1E1" stroke-miterlimit="10" stroke-linecap="round" stroke-linejoin="round"/>
</svg>
